<svg aria-hidden="true" style="position: absolute; width: 0; height: 0; overflow: hidden;" version="1.1" xmlns="http://www.w3.org/2000/svg" xmlns:xlink="http://www.w3.org/1999/xlink">
<defs>
<symbol id="icon-check-square-o" viewBox="0 0 26 28">
<title>check-square-o</title>
<path d="M22 14.531v4.969c0 2.484-2.016 4.5-4.5 4.5h-13c-2.484 0-4.5-2.016-4.5-4.5v-13c0-2.484 2.016-4.5 4.5-4.5h13c0.625 0 1.25 0.125 1.828 0.391 0.141 0.063 0.25 0.203 0.281 0.359 0.031 0.172-0.016 0.328-0.141 0.453l-0.766 0.766c-0.094 0.094-0.234 0.156-0.359 0.156-0.047 0-0.094-0.016-0.141-0.031-0.234-0.063-0.469-0.094-0.703-0.094h-13c-1.375 0-2.5 1.125-2.5 2.5v13c0 1.375 1.125 2.5 2.5 2.5h13c1.375 0 2.5-1.125 2.5-2.5v-3.969c0-0.125 0.047-0.25 0.141-0.344l1-1c0.109-0.109 0.234-0.156 0.359-0.156 0.063 0 0.125 0.016 0.187 0.047 0.187 0.078 0.313 0.25 0.313 0.453zM25.609 6.891l-12.719 12.719c-0.5 0.5-1.281 0.5-1.781 0l-6.719-6.719c-0.5-0.5-0.5-1.281 0-1.781l1.719-1.719c0.5-0.5 1.281-0.5 1.781 0l4.109 4.109 10.109-10.109c0.5-0.5 1.281-0.5 1.781 0l1.719 1.719c0.5 0.5 0.5 1.281 0 1.781z"></path>
</symbol>
<symbol id="icon-plus-circle" viewBox="0 0 24 28">
<title>plus-circle</title>
<path d="M19 15v-2c0-0.547-0.453-1-1-1h-4v-4c0-0.547-0.453-1-1-1h-2c-0.547 0-1 0.453-1 1v4h-4c-0.547 0-1 0.453-1 1v2c0 0.547 0.453 1 1 1h4v4c0 0.547 0.453 1 1 1h2c0.547 0 1-0.453 1-1v-4h4c0.547 0 1-0.453 1-1zM24 14c0 6.625-5.375 12-12 12s-12-5.375-12-12 5.375-12 12-12 12 5.375 12 12z"></path>
</symbol>
<symbol id="icon-user-circle-o" viewBox="0 0 28 28">
<title>user-circle-o</title>
<path d="M14 0c7.734 0 14 6.266 14 14 0 7.688-6.234 14-14 14-7.75 0-14-6.297-14-14 0-7.734 6.266-14 14-14zM23.672 21.109c1.453-2 2.328-4.453 2.328-7.109 0-6.609-5.391-12-12-12s-12 5.391-12 12c0 2.656 0.875 5.109 2.328 7.109 0.562-2.797 1.922-5.109 4.781-5.109 1.266 1.234 2.984 2 4.891 2s3.625-0.766 4.891-2c2.859 0 4.219 2.312 4.781 5.109zM20 11c0-3.313-2.688-6-6-6s-6 2.688-6 6 2.688 6 6 6 6-2.688 6-6z"></path>
</symbol>
<symbol id="icon-credit-card" viewBox="0 0 32 32">
<title>credit-card</title>
<path d="M29 4h-26c-1.65 0-3 1.35-3 3v18c0 1.65 1.35 3 3 3h26c1.65 0 3-1.35 3-3v-18c0-1.65-1.35-3-3-3zM3 6h26c0.542 0 1 0.458 1 1v3h-28v-3c0-0.542 0.458-1 1-1zM29 26h-26c-0.542 0-1-0.458-1-1v-9h28v9c0 0.542-0.458 1-1 1zM4 20h2v4h-2zM8 20h2v4h-2zM12 20h2v4h-2z"></path>
</symbol>
<symbol id="icon-calendar" viewBox="0 0 32 32">
<title>calendar</title>
<path d="M10 12h4v4h-4zM16 12h4v4h-4zM22 12h4v4h-4zM4 24h4v4h-4zM10 24h4v4h-4zM16 24h4v4h-4zM10 18h4v4h-4zM16 18h4v4h-4zM22 18h4v4h-4zM4 18h4v4h-4zM26 0v2h-4v-2h-14v2h-4v-2h-4v32h30v-32h-4zM28 30h-26v-22h26v22z"></path>
</symbol>
<symbol id="icon-warning" viewBox="0 0 32 32">
<title>warning</title>
<path d="M16 2.899l13.409 26.726h-26.819l13.409-26.726zM16 0c-0.69 0-1.379 0.465-1.903 1.395l-13.659 27.222c-1.046 1.86-0.156 3.383 1.978 3.383h27.166c2.134 0 3.025-1.522 1.978-3.383h0l-13.659-27.222c-0.523-0.93-1.213-1.395-1.903-1.395v0z"></path>
<path d="M18 26c0 1.105-0.895 2-2 2s-2-0.895-2-2c0-1.105 0.895-2 2-2s2 0.895 2 2z"></path>
<path d="M16 22c-1.105 0-2-0.895-2-2v-6c0-1.105 0.895-2 2-2s2 0.895 2 2v6c0 1.105-0.895 2-2 2z"></path>
</symbol id="icon-income" viewBox="0 0 512 512">
<symbol>
<title>income</title>
<g id="_x32_58_x2C__Income_x2C__profit_x2C__revenue_x2C__Money"><g><path d="M320.732,281.086c2.81,0.001,5.648-0.074,8.525-0.225c39.295-2.059,84.162-19.994,95.82-55.425    c5.626-17.098,3.002-36.509-7.799-57.693c-12.573-24.662-36.021-51.203-69.691-78.884c-0.01-0.009-0.018-0.02-0.028-0.029    c-0.124-0.104-0.229-0.224-0.339-0.34c-0.072-0.078-0.155-0.149-0.221-0.232c-0.086-0.108-0.152-0.228-0.226-0.343    c-0.067-0.105-0.144-0.205-0.2-0.315c-0.055-0.106-0.09-0.221-0.135-0.332c-0.051-0.127-0.111-0.251-0.149-0.382    c-0.036-0.123-0.05-0.25-0.073-0.375c-0.023-0.125-0.057-0.248-0.068-0.375c-0.014-0.136-0.002-0.272-0.002-0.41    c0.002-0.12-0.008-0.239,0.004-0.359c0.013-0.122,0.047-0.242,0.07-0.364c0.026-0.135,0.045-0.271,0.085-0.404    c0.031-0.102,0.082-0.198,0.122-0.298c0.059-0.148,0.111-0.296,0.188-0.438c0.007-0.013,0.01-0.026,0.017-0.039l28.443-51.159    c-4.455-0.075-8.647-0.119-12.744-0.162c-28.016-0.292-46.754-0.486-78.191-10.632l-11.191,11.558L305.451,77.4    c0.019,0.025,0.029,0.053,0.047,0.079c0.084,0.12,0.151,0.246,0.221,0.373c0.06,0.107,0.124,0.211,0.173,0.322    c0.054,0.123,0.091,0.25,0.132,0.376c0.039,0.123,0.084,0.243,0.111,0.368c0.027,0.122,0.037,0.246,0.052,0.37    c0.017,0.131,0.038,0.261,0.04,0.393c0.004,0.126-0.011,0.25-0.02,0.376c-0.009,0.128-0.013,0.256-0.033,0.383    c-0.021,0.127-0.061,0.25-0.094,0.376c-0.033,0.123-0.062,0.246-0.105,0.366c-0.045,0.117-0.105,0.228-0.16,0.341    c-0.059,0.122-0.114,0.245-0.187,0.361c-0.062,0.1-0.14,0.191-0.211,0.287c-0.089,0.118-0.175,0.236-0.278,0.346    c-0.021,0.022-0.034,0.047-0.055,0.069c-33.967,34.471-56.932,66.155-68.257,94.171c-9.686,23.962-10.717,44.743-3.063,61.764    C245.597,264.837,279.234,281.084,320.732,281.086z M306.436,202.554c1.004-1.968,3.413-2.75,5.381-1.745    c11.23,5.731,21.206,3.496,26.337-0.161c3.229-2.301,4.856-5.234,4.463-8.047c-0.568-4.057-5.274-7.937-12.911-10.645    c-19.691-7.004-23.764-18.179-21.269-25.621c1.829-5.455,7.397-9.776,15.849-11.056v-12.104c0-2.209,1.791-4,4-4s4,1.791,4,4    v11.807c3.989,0.25,8.389,1.059,13.156,2.561c2.107,0.664,3.277,2.91,2.613,5.017c-0.664,2.107-2.91,3.276-5.018,2.613    c-16.078-5.066-25.477-0.884-27.016,3.705c-1.402,4.183,3.119,10.83,16.361,15.54c14.433,5.118,17.57,12.894,18.156,17.073    c0.81,5.782-2.086,11.641-7.744,15.673c-2.668,1.901-6.277,3.523-10.51,4.406v12.729c0,2.209-1.791,4-4,4s-4-1.791-4-4v-12.052    c-4.984-0.174-10.45-1.426-16.105-4.312C306.213,206.931,305.432,204.522,306.436,202.554z"/><path d="M491.23,272.724c-2.079-2.185-8.912-3.171-21.325,1.235c-12.941,4.595-28.331,13.826-43.333,25.993    c-17.986,14.298-38.545,28.53-54.857,25.879l-1.093-0.177c7.55,7.375,11.438,16.827,9.948,26.116    c-2.309,14.378-16.242,23.061-37.273,23.226c-0.01,0-0.021,0-0.031,0c-0.213,0-0.426-0.018-0.637-0.052l-95.339-15.378    c-2.181-0.352-3.664-2.404-3.312-4.585c0.352-2.181,2.407-3.671,4.585-3.312l95.003,15.322    c16.608-0.209,27.479-6.361,29.104-16.49c1.51-9.406-5.938-22.464-22.714-28.138c-0.068-0.023-0.127-0.062-0.193-0.088    l-106.404-17.231c-1.013-0.164-1.924-0.711-2.545-1.527c-12.604-16.583-27.574-25.901-44.493-27.697    c-38.828-4.119-80.372,31.537-100.333,48.673c-1.95,1.675-3.711,3.182-5.298,4.511l-12.502-15.727    c-0.714-0.898-1.78-1.447-2.927-1.506c-1.152-0.054-2.263,0.378-3.065,1.199L16,358.625c-1.544,1.58-1.516,4.112,0.064,5.656    c1.579,1.544,4.112,1.515,5.656-0.064l53.026-42.412l100.743,126.729l-43.323,39.3c-1.492,1.63-1.379,4.159,0.25,5.651    c0.768,0.702,1.734,1.049,2.699,1.049c1.083,0,2.163-0.438,2.952-1.3l45.627-41.817c1.328-1.45,1.404-3.65,0.181-5.189    l-77.583-97.595l62.203,78.247l17.136-13.646c0.832-0.661,1.894-0.965,2.946-0.845c141.421,16.172,148.696,9.804,218.291-51.138    c17.913-15.686,40.192-35.195,69.789-58.735C493.045,284.143,493.538,275.146,491.23,272.724z"/><path d="M142.322,452.35c0.423-3.709-0.622-7.36-2.942-10.282c-2.669-3.357-6.662-5.283-10.953-5.283    c-3.15,0-6.239,1.085-8.684,3.044c-2.924,2.32-4.769,5.644-5.195,9.356c-0.425,3.711,0.618,7.362,2.942,10.291    c2.67,3.348,6.658,5.268,10.943,5.269h0c3.143,0,6.231-1.079,8.692-3.034C140.053,459.39,141.898,456.065,142.322,452.35z"/></g></g><g id="Layer_1"/>
</symbol>
</defs>
</svg>
